<?xml version="1.0" encoding="UTF-8"?>
<svg id="_图层_1" xmlns="http://www.w3.org/2000/svg" version="1.1" viewBox="0 0 179.22 214.49">
  <!-- Generator: Adobe Illustrator 30.2.1, SVG Export Plug-In . SVG Version: 2.1.1 Build 1)  -->
  <defs>
    <style>
      .st0 {
        fill: #1e479c;
      }

      .st1 {
        fill: #f5c71d;
      }

      .st2 {
        fill: #e52e21;
      }
    </style>
  </defs>
  <rect class="st2" x="89.1" y="64.4" width="3" height="136.14"/>
  <path class="st0" d="M48.96,115.19h0c8.11,0,14.68,6.57,14.68,14.68v39.34c0,8.11-6.57,14.68-14.68,14.68h0c-8.11,0-14.68-6.57-14.68-14.68v-39.34c0-8.11,6.57-14.68,14.68-14.68Z"/>
  <path class="st0" d="M41.41,163.09h0c5.51-5.95,14.8-6.3,20.75-.79l28.86,26.74c5.95,5.51,6.3,14.8.79,20.75h0c-5.51,5.95-14.8,6.3-20.75.79l-28.86-26.74c-5.95-5.51-6.3-14.8-.79-20.75Z"/>
  <path class="st1" d="M32.35,18.76C14.79,31.73,0,51.72,0,82.31c2.76-2.57,34.74-25.86,61.59,3.55,0-1.51,6.67-16.27,28.02-16.76,21.35.49,28.02,15.25,28.02,16.76,26.85-29.41,58.83-6.12,61.59-3.55,0-30.58-14.79-50.58-32.35-63.54-33.9-25.02-80.62-25.02-114.52,0Z"/>
</svg>