<?xml version="1.0" encoding="UTF-8"?>
<svg id="_图层_1" data-name="图层_1" xmlns="http://www.w3.org/2000/svg" version="1.1" viewBox="0 0 219.77 326.68">
  <!-- Generator: Adobe Illustrator 30.2.1, SVG Export Plug-In . SVG Version: 2.1.1 Build 1)  -->
  <defs>
    <style>
      .st0 {
        fill: #1e479c;
      }

      .st1 {
        fill: none;
        stroke: #231815;
        stroke-miterlimit: 10;
        stroke-width: 3px;
      }

      .st2 {
        fill: #ca64a3;
      }

      .st3 {
        fill: #24733d;
      }

      .st4 {
        fill: #ef8319;
      }

      .st5 {
        fill: #e61e6e;
      }

      .st6 {
        fill: #db392a;
      }
    </style>
  </defs>
  <path class="st0" d="M12.65,62.82S31.22,0,120.34,0s99.43,62.82,99.43,62.82H12.65Z"/>
  <path class="st2" d="M125.03,197.61l-20.42-20.05-12.04-38.5c-1.93-6.49-8.75-10.21-15.25-8.27-6.5,1.92-10.21,8.74-8.28,15.25l13.19,42.18c.88,2.98,2.8,5.35,5.23,6.88l19.88,19.53c4.71,4.89,12.47,5.03,17.35.32,4.88-4.7,5.03-12.46.33-17.34Z"/>
  <path class="st4" d="M48.95,214.88l-13.56,47.7-31.62,34.89c-4.97,5.37-5.03,13.39-.14,17.91,4.88,4.52,12.88,3.83,17.85-1.54l32.6-35.29,26.01-45.75-31.15-17.92Z"/>
  <path class="st6" d="M88.41,96c5.09,12.87-1.22,27.43-14.09,32.52s-27.43-1.22-32.51-14.08c-5.09-12.87,1.22-27.43,14.09-32.52,12.87-5.08,27.42,1.22,32.51,14.08Z"/>
  <path class="st5" d="M83.05,269.67l3.03,36.17c.28,2.98.4,6.1.87,8.93.49,2.86,1.15,5.79,2.62,8.08,1.39,2.38,3.77,3.54,6.59,3.73,2.89.17,5.88.21,8.27-.91,2.49-1,4.16-3.26,5.01-5.91.92-2.64,1.09-5.62,1.11-8.55.01-2.94-.33-5.93-.53-8.97l-.67-9.05-2.61-35.98c-9.77-17.2-19.4-34.49-28.92-51.84l-29.57,14.65c11.67,16.3,23.22,32.68,34.62,49.15.1.14.16.32.17.49Z"/>
  <path class="st6" d="M23.98,210.28l7.9-27.5,28.11-28.93c4.79-4.79,4.8-12.56.02-17.35-4.78-4.8-12.56-4.81-17.36-.02l-30.8,31.7c-2.19,2.19-3.37,5-3.56,7.88l-7.7,26.77c-2.06,6.46,1.51,13.36,7.98,15.42,6.46,2.06,13.36-1.51,15.42-7.97Z"/>
  <path class="st3" d="M88.43,143.78c-1.25-7.04-4.73-12.53-9.22-16.29-1.37.87-2.84,1.63-4.41,2.25-3.11,1.23-6.36,1.85-9.68,1.85-5.43,0-10.55-1.63-14.81-4.51-1.44,1.47-2.68,3.26-3.68,5.35,1.48-.55,3.06-.85,4.68-.85,3.64,0,7.05,1.42,9.61,3.99,5.29,5.3,5.29,13.92-.02,19.21l-20.42,21.01c-.07,14.06,1.82,28.04,6.64,41.54,8.74,24.45,34.21,10.89,37.41-14.8,3.33-26.67,7.53-38.3,3.88-58.76Z"/>
  <rect class="st0" x="118.69" y="61.51" width="3" height="140.76"/>
  <line class="st1" x1="123.49" y1="127.08" x2="123.27" y2="127.08"/>
</svg>